<svg width="52" height="55" viewBox="0 0 52 55" fill="none" xmlns="http://www.w3.org/2000/svg">
<path fill-rule="evenodd" clip-rule="evenodd" d="M26 0C11.635 0 0 12.3062 0 27.5C0 39.6687 7.4425 49.9469 17.7775 53.5906C19.0775 53.8312 19.565 53.0062 19.565 52.2844C19.565 51.6312 19.5325 49.4656 19.5325 47.1625C13 48.4344 11.31 45.4781 10.79 43.9312C10.4975 43.1406 9.23 40.7 8.125 40.0469C7.215 39.5312 5.915 38.2594 8.0925 38.225C10.14 38.1906 11.6025 40.2187 12.09 41.0437C14.43 45.2031 18.1675 44.0344 19.6625 43.3125C19.89 41.525 20.5725 40.3219 21.32 39.6344C15.535 38.9469 9.49 36.575 9.49 26.0562C9.49 23.0656 10.4975 20.5906 12.155 18.6656C11.895 17.9781 10.985 15.1594 12.415 11.3781C12.415 11.3781 14.5925 10.6562 19.565 14.1969C21.645 13.5781 23.855 13.2687 26.065 13.2687C28.275 13.2687 30.485 13.5781 32.565 14.1969C37.5375 10.6219 39.715 11.3781 39.715 11.3781C41.145 15.1594 40.235 17.9781 39.975 18.6656C41.6325 20.5906 42.64 23.0312 42.64 26.0562C42.64 36.6094 36.5625 38.9469 30.7775 39.6344C31.72 40.4937 32.5325 42.1437 32.5325 44.7219C32.5325 48.4 32.5 51.3562 32.5 52.2844C32.5 53.0062 32.9875 53.8656 34.2875 53.5906C39.4489 51.7475 43.9339 48.2389 47.1113 43.5585C50.2887 38.8782 51.9984 33.2619 52 27.5C52 12.3062 40.365 0 26 0Z" fill="black"/>
</svg>
