<svg width="40" height="42" viewBox="0 0 40 42" fill="none" xmlns="http://www.w3.org/2000/svg">
<path d="M19.8333 20.275C22.5602 20.275 24.7708 18.2267 24.7708 15.7C24.7708 13.1733 22.5602 11.125 19.8333 11.125C17.1063 11.125 14.8958 13.1733 14.8958 15.7C14.8958 18.2267 17.1063 20.275 19.8333 20.275Z" stroke="black" stroke-width="2" stroke-linecap="round" stroke-linejoin="round"/>
<path d="M19.8333 3.5C16.3413 3.5 12.9923 4.78535 10.5231 7.0733C8.05382 9.36124 6.66663 12.4644 6.66663 15.7C6.66663 18.5853 7.32825 20.4732 9.13538 22.5625L19.8333 34L30.5312 22.5625C32.3383 20.4732 33 18.5853 33 15.7C33 12.4644 31.6128 9.36124 29.1435 7.0733C26.6743 4.78535 23.3253 3.5 19.8333 3.5V3.5Z" stroke="black" stroke-width="2" stroke-linecap="round" stroke-linejoin="round"/>
</svg>
