<svg width="91" height="92" viewBox="0 0 91 92" fill="none" xmlns="http://www.w3.org/2000/svg">
<g filter="url(#filter0_d_31_132)">
<ellipse cx="45.5" cy="42" rx="41.5" ry="42" fill="#F2EAC9"/>
</g>
<path d="M63.1713 31.5664L48.366 23.6983C47.505 23.2412 46.5226 23 45.5218 23C44.521 23 43.5386 23.2412 42.6777 23.6983L27.8786 31.5664C26.9984 32.037 26.2701 32.7048 25.7654 33.504C25.2606 34.3033 24.9969 35.2066 25.0001 36.1249V51.8723C24.9949 52.788 25.2551 53.6892 25.7553 54.4878C26.2555 55.2863 26.9785 55.9549 27.8536 56.428L42.6558 64.3017C43.5168 64.7588 44.4991 65 45.4999 65C46.5007 65 47.4831 64.7588 48.3441 64.3017L63.1463 56.428C64.0216 55.9551 64.7448 55.2866 65.245 54.488C65.7453 53.6894 66.0053 52.7881 65.9998 51.8723V36.1249C66.008 35.2116 65.752 34.312 65.2569 33.5136C64.7617 32.7153 64.0443 32.0454 63.1744 31.5692L63.1713 31.5664ZM51.704 56.1536V57.2848C51.7028 57.3544 51.6821 57.4227 51.6439 57.4833C51.6057 57.544 51.5511 57.5951 51.4852 57.632L50.7382 58.0156C50.6194 58.0716 50.5194 58.0156 50.5194 57.8672V56.7584C49.9903 56.9907 49.3852 57.0434 48.8161 56.9068C48.7711 56.8804 48.738 56.8407 48.7226 56.7946C48.7071 56.7485 48.7104 56.699 48.7317 56.6548L49.0005 55.6328C49.0154 55.5769 49.0428 55.5244 49.0809 55.4782C49.1191 55.432 49.1672 55.3932 49.2224 55.364C49.2411 55.3567 49.2613 55.353 49.2817 55.353C49.3022 55.353 49.3224 55.3567 49.3411 55.364C49.8647 55.4897 50.4225 55.4264 50.8945 55.1876C51.2289 55.0407 51.5128 54.8157 51.7164 54.5362C51.9199 54.2568 52.0355 53.9333 52.0509 53.6C52.0509 53.0231 51.7008 52.7823 50.8507 52.7795C49.7756 52.7795 48.7848 52.5947 48.7567 51.1723C48.7693 50.5647 48.9319 49.9671 49.2329 49.4224C49.5339 48.8778 49.9658 48.3996 50.4975 48.0223V46.8826C50.4971 46.812 50.517 46.7424 50.5554 46.6806C50.5937 46.6188 50.6491 46.5669 50.7163 46.5298L51.4383 46.1182C51.5571 46.0622 51.6571 46.1182 51.6571 46.2694V47.4147C52.1 47.2335 52.5946 47.1797 53.0729 47.2607C53.1233 47.2861 53.1609 47.3277 53.1783 47.3771C53.1957 47.4265 53.1916 47.4799 53.1667 47.5267L52.9135 48.5403C52.8826 48.6437 52.8103 48.7334 52.7104 48.7923C52.6749 48.8029 52.6365 48.8029 52.601 48.7923C52.1347 48.7017 51.6473 48.7738 51.2383 48.9939C50.9396 49.1095 50.6837 49.2988 50.5005 49.5397C50.3173 49.7807 50.2144 50.0633 50.2038 50.3547C50.2038 50.8727 50.51 51.0323 51.5321 51.0491C52.901 51.0491 53.4917 51.6063 53.5074 52.8383C53.494 53.4753 53.326 54.102 53.0151 54.675C52.7042 55.248 52.2579 55.7535 51.7071 56.1564L51.704 56.1536ZM59.4582 54.2496C59.468 54.2976 59.4627 54.3472 59.4428 54.3927C59.4229 54.4382 59.3893 54.4778 59.3457 54.5072L55.6014 56.5428C55.5843 56.5559 55.5629 56.5638 55.5404 56.5653C55.518 56.5668 55.4955 56.5619 55.4764 56.5512C55.4572 56.5407 55.442 56.525 55.4331 56.5065C55.4241 56.4879 55.4218 56.4674 55.4264 56.4476V55.5796C55.429 55.533 55.4466 55.4881 55.4771 55.4503C55.5076 55.4126 55.5497 55.3835 55.5983 55.3668L59.2832 53.3899C59.3009 53.3773 59.3226 53.3698 59.3452 53.3687C59.3678 53.3675 59.3903 53.3726 59.4095 53.3834C59.4287 53.3942 59.4437 53.41 59.4524 53.4287C59.4612 53.4475 59.4632 53.4681 59.4582 53.4879V54.2524V54.2496ZM62.043 34.8901L48.0347 42.6406C46.2876 43.5674 45.003 44.581 45.003 46.4682V61.9245C45.003 63.0557 45.5187 63.7781 46.2938 63.9993C46.0381 64.0423 45.7788 64.0658 45.5187 64.0693C44.6936 64.0693 43.8872 63.8677 43.1809 63.4897L28.3756 55.6188C27.6573 55.2285 27.064 54.6784 26.6532 54.0219C26.2425 53.3654 26.0283 52.6249 26.0315 51.8723V36.1249C26.0272 35.3714 26.2409 34.6297 26.6517 33.9721C27.0625 33.3146 27.6564 32.7636 28.3756 32.3728L43.184 24.5047C43.8883 24.1306 44.6921 23.9332 45.5109 23.9332C46.3297 23.9332 47.1334 24.1306 47.8378 24.5047L62.6399 32.3784C63.2428 32.705 63.7587 33.1456 64.1517 33.6693C64.5447 34.1931 64.8053 34.7875 64.9153 35.4109C64.434 34.4756 63.3275 34.2152 62.0399 34.8929H62.0461L62.043 34.8901Z" fill="black"/>
<defs>
<filter id="filter0_d_31_132" x="0" y="0" width="91" height="92" filterUnits="userSpaceOnUse" color-interpolation-filters="sRGB">
<feFlood flood-opacity="0" result="BackgroundImageFix"/>
<feColorMatrix in="SourceAlpha" type="matrix" values="0 0 0 0 0 0 0 0 0 0 0 0 0 0 0 0 0 0 127 0" result="hardAlpha"/>
<feOffset dy="4"/>
<feGaussianBlur stdDeviation="2"/>
<feComposite in2="hardAlpha" operator="out"/>
<feColorMatrix type="matrix" values="0 0 0 0 0 0 0 0 0 0 0 0 0 0 0 0 0 0 0.25 0"/>
<feBlend mode="normal" in2="BackgroundImageFix" result="effect1_dropShadow_31_132"/>
<feBlend mode="normal" in="SourceGraphic" in2="effect1_dropShadow_31_132" result="shape"/>
</filter>
</defs>
</svg>
