<svg width="91" height="92" viewBox="0 0 91 92" fill="none" xmlns="http://www.w3.org/2000/svg">
<g filter="url(#filter0_d_31_139)">
<ellipse cx="45.5" cy="42" rx="41.5" ry="42" fill="white"/>
</g>
<path d="M37.5 71C42.192 71 46 67.64 46 63.5V56H37.5C32.808 56 29 59.36 29 63.5C29 67.64 32.808 71 37.5 71Z" fill="#0ACF83"/>
<path d="M29 48.5C29 44.36 32.808 41 37.5 41H46V56H37.5C32.808 56 29 52.64 29 48.5Z" fill="#A259FF"/>
<path d="M29 33.5C29 29.36 32.808 26 37.5 26H46V41H37.5C32.808 41 29 37.64 29 33.5Z" fill="#F24E1E"/>
<path d="M46 26H54.5C59.192 26 63 29.36 63 33.5C63 37.64 59.192 41 54.5 41H46V26Z" fill="#FF7262"/>
<path d="M63 48.5C63 52.64 59.192 56 54.5 56C49.808 56 46 52.64 46 48.5C46 44.36 49.808 41 54.5 41C59.192 41 63 44.36 63 48.5Z" fill="#1ABCFE"/>
<defs>
<filter id="filter0_d_31_139" x="0" y="0" width="91" height="92" filterUnits="userSpaceOnUse" color-interpolation-filters="sRGB">
<feFlood flood-opacity="0" result="BackgroundImageFix"/>
<feColorMatrix in="SourceAlpha" type="matrix" values="0 0 0 0 0 0 0 0 0 0 0 0 0 0 0 0 0 0 127 0" result="hardAlpha"/>
<feOffset dy="4"/>
<feGaussianBlur stdDeviation="2"/>
<feComposite in2="hardAlpha" operator="out"/>
<feColorMatrix type="matrix" values="0 0 0 0 0 0 0 0 0 0 0 0 0 0 0 0 0 0 0.25 0"/>
<feBlend mode="normal" in2="BackgroundImageFix" result="effect1_dropShadow_31_139"/>
<feBlend mode="normal" in="SourceGraphic" in2="effect1_dropShadow_31_139" result="shape"/>
</filter>
</defs>
</svg>
