<svg width="91" height="92" viewBox="0 0 91 92" fill="none" xmlns="http://www.w3.org/2000/svg">
<g filter="url(#filter0_d_31_128)">
<ellipse cx="45.5" cy="42" rx="41.5" ry="42" fill="#E5E5E5"/>
<path d="M46.2267 40.1293L28.3254 21.7924C28.0803 21.5412 27.7892 21.3419 27.4689 21.2059C27.1485 21.07 26.8051 21 26.4584 21C26.1116 21 25.7683 21.07 25.4479 21.2059C25.1276 21.3419 24.8365 21.5412 24.5913 21.7924L20.8742 25.6007L25.5896 30.4308C26.1439 30.2377 26.7399 30.2075 27.3101 30.3436C27.8802 30.4797 28.4018 30.7766 28.8157 31.2008C29.2318 31.6276 29.5224 32.1657 29.6541 32.7537C29.7859 33.3416 29.7535 33.9557 29.5608 34.5257L34.1046 39.1812C35.2041 38.7933 36.4729 39.0444 37.3507 39.9452C37.6426 40.244 37.8741 40.5988 38.032 40.9893C38.19 41.3797 38.2713 41.7983 38.2713 42.2209C38.2713 42.6436 38.19 43.0621 38.032 43.4526C37.8741 43.8431 37.6426 44.1979 37.3507 44.4966C36.8372 45.0231 36.1615 45.3511 35.4386 45.4246C34.7157 45.4982 33.9902 45.3128 33.3856 44.9001C32.7811 44.4874 32.3349 43.8728 32.1229 43.1609C31.911 42.4491 31.9464 41.684 32.2231 40.9959L27.9852 36.6546L27.9849 48.0794C28.2921 48.235 28.5727 48.4406 28.8157 48.6881C29.1075 48.987 29.339 49.3418 29.497 49.7324C29.6549 50.1229 29.7362 50.5415 29.7362 50.9642C29.7362 51.3869 29.6549 51.8055 29.497 52.1961C29.339 52.5866 29.1075 52.9414 28.8157 53.2403C27.5881 54.4979 25.5985 54.4979 24.3727 53.2403C24.0066 52.8655 23.7365 52.4037 23.5865 51.8962C23.4365 51.3886 23.4113 50.851 23.513 50.331C23.6148 49.811 23.8404 49.3249 24.1698 48.9158C24.4991 48.5067 24.9221 48.1873 25.401 47.986V36.4547C25.0158 36.2935 24.6661 36.0546 24.3727 35.7522C23.443 34.8009 23.2194 33.4033 23.6958 32.2336L19.0477 27.4713L6.77363 40.0442C6.52836 40.2954 6.3338 40.5937 6.20106 40.922C6.06832 41.2502 6 41.6021 6 41.9574C6 42.3127 6.06832 42.6645 6.20106 42.9928C6.3338 43.3211 6.52836 43.6194 6.77363 43.8706L24.6748 62.2079C25.1701 62.7151 25.8416 63 26.5419 63C27.2421 63 27.9137 62.7151 28.4089 62.2079L46.2267 43.9561C46.7218 43.4486 47 42.7603 47 42.0427C47 41.3251 46.7218 40.6369 46.2267 40.1293Z" fill="#E44D26"/>
<path d="M55.6557 33.9411C54.2141 33.9411 53.1406 34.8453 53.1406 37.0215C53.1406 38.6611 53.8481 39.7996 55.5779 39.7996C57.0442 39.7996 58.0402 38.6956 58.0402 36.9534C58.0402 34.9792 57.149 33.9411 55.6557 33.9411ZM52.7736 49.3074C52.4323 49.8421 52.0923 50.4107 52.0923 51.0809C52.0923 52.4191 53.428 52.8218 55.2629 52.8218C56.7825 52.8218 58.8528 52.6856 58.8528 50.8805C58.8528 49.8075 57.8568 49.7414 56.5984 49.6407L52.7736 49.3074ZM60.5295 34.0421C61.0004 34.812 61.499 35.8837 61.499 37.4233C61.499 41.1387 59.2193 43.3143 55.9184 43.3143C55.079 43.3143 54.3192 43.1807 53.8481 43.0136L52.983 44.7871L55.5506 44.9878C60.0842 45.357 62.7559 45.5248 62.7559 49.975C62.7559 53.8254 60.1102 56 55.5506 56C50.8081 56 49 54.4601 49 51.816C49 50.3096 49.5241 49.5078 50.4413 48.4012C49.5764 47.9343 49.2885 47.0979 49.2885 46.1934C49.2885 45.4564 49.5764 44.7874 50.0488 44.1507C50.5201 43.5157 51.044 42.879 51.673 42.1426C50.3893 41.3391 49.4193 39.5985 49.4193 37.1209C49.4193 33.2721 51.411 30.6287 55.4192 30.6287C56.5463 30.6287 57.2278 30.7609 57.8305 30.9633H62.9406V33.8075L60.5295 34.0421ZM67.5505 27.9592C66.0566 27.9592 65.192 26.8536 65.192 24.9449C65.192 23.0388 66.0563 22 67.5505 22C69.0701 22 69.935 23.0388 69.935 24.9449C69.935 26.8536 69.0703 27.9592 67.5505 27.9592ZM64.1697 48.0755V45.4323L65.5064 45.1987C65.8735 45.1313 65.9255 45.0312 65.9255 44.5281V34.6867C65.9255 34.3195 65.8472 34.0839 65.5842 33.9845L64.1697 33.3478L64.4576 30.6372H69.8822V44.5281C69.8822 45.0645 69.9074 45.1313 70.3018 45.199L71.638 45.4327V48.0755H64.1697ZM82 46.7778C80.8729 47.4803 79.2222 48.1163 77.7281 48.1163C74.61 48.1163 73.4314 46.5112 73.4314 42.7267V33.9575C73.4314 33.7568 73.4314 33.6229 73.221 33.6229H71.3871V30.6428C73.6936 30.3072 74.61 28.8344 74.8982 25.1857H77.3878V29.9403C77.3878 30.1739 77.3878 30.2749 77.5977 30.2749H81.292V33.6222H77.3878V41.6221C77.3878 43.597 77.7551 44.3663 79.1694 44.3663C79.904 44.3663 80.663 44.1326 81.2917 43.8312L82 46.7774" fill="#2F2707"/>
</g>
<defs>
<filter id="filter0_d_31_128" x="0" y="0" width="91" height="92" filterUnits="userSpaceOnUse" color-interpolation-filters="sRGB">
<feFlood flood-opacity="0" result="BackgroundImageFix"/>
<feColorMatrix in="SourceAlpha" type="matrix" values="0 0 0 0 0 0 0 0 0 0 0 0 0 0 0 0 0 0 127 0" result="hardAlpha"/>
<feOffset dy="4"/>
<feGaussianBlur stdDeviation="2"/>
<feComposite in2="hardAlpha" operator="out"/>
<feColorMatrix type="matrix" values="0 0 0 0 0 0 0 0 0 0 0 0 0 0 0 0 0 0 0.25 0"/>
<feBlend mode="normal" in2="BackgroundImageFix" result="effect1_dropShadow_31_128"/>
<feBlend mode="normal" in="SourceGraphic" in2="effect1_dropShadow_31_128" result="shape"/>
</filter>
</defs>
</svg>
