<svg width="320" height="255" viewBox="0 0 320 255" fill="none" xmlns="http://www.w3.org/2000/svg">
<path d="M118.229 92.8484C118.229 92.8484 107.223 90.8552 104.14 98.7117C101.057 106.568 104.14 133.701 104.14 133.701L145.203 163.639L118.229 92.8484Z" fill="#3F3D56"/>
<path d="M169.869 212.828L153.589 217.568C151.223 218.251 148.742 216.924 148.038 214.601C147.344 212.276 148.692 209.836 151.055 209.144L167.313 204.4C169.677 203.717 172.158 205.04 172.864 207.362C173.566 209.684 172.228 212.126 169.869 212.828Z" fill="#2BD0D0"/>
<path d="M169.072 230.598C173.1 230.598 176.366 227.267 176.366 223.158C176.366 219.049 173.1 215.718 169.072 215.718C165.044 215.718 161.779 219.049 161.779 223.158C161.779 227.267 165.044 230.598 169.072 230.598Z" fill="#25233A"/>
<path d="M168.078 228.569C170.092 228.569 171.724 226.903 171.724 224.849C171.724 222.794 170.092 221.129 168.078 221.129C166.064 221.129 164.431 222.794 164.431 224.849C164.431 226.903 166.064 228.569 168.078 228.569Z" fill="#3F3D56"/>
<path d="M139.236 223.158C143.264 223.158 146.529 219.827 146.529 215.718C146.529 211.609 143.264 208.278 139.236 208.278C135.208 208.278 131.943 211.609 131.943 215.718C131.943 219.827 135.208 223.158 139.236 223.158Z" fill="#25233A"/>
<path d="M141.888 216.056C141.888 217.043 141.504 217.989 140.82 218.686C140.136 219.384 139.209 219.776 138.242 219.776C137.274 219.776 136.347 219.384 135.663 218.686C134.979 217.989 134.595 217.043 134.595 216.056C134.595 215.07 134.979 214.123 135.663 213.426C136.347 212.728 137.274 212.336 138.242 212.336C139.209 212.336 140.136 212.728 140.82 213.426C141.504 214.123 141.888 215.07 141.888 216.056Z" fill="url(#paint0_linear_31_192)"/>
<path d="M137.247 233.303C141.275 233.303 144.54 229.972 144.54 225.863C144.54 221.754 141.275 218.423 137.247 218.423C133.219 218.423 129.954 221.754 129.954 225.863C129.954 229.972 133.219 233.303 137.247 233.303Z" fill="#25233A"/>
<path d="M143.214 226.201C143.214 227.188 142.83 228.134 142.146 228.832C141.462 229.529 140.535 229.921 139.568 229.921C138.601 229.921 137.673 229.529 136.989 228.832C136.305 228.134 135.921 227.188 135.921 226.201C135.921 225.215 136.305 224.269 136.989 223.571C137.673 222.873 138.601 222.481 139.568 222.481C140.535 222.481 141.462 222.873 142.146 223.571C142.83 224.269 143.214 225.215 143.214 226.201Z" fill="#3F3D56"/>
<path d="M170.455 220.367L136.782 213.573C134.412 213.088 132.88 210.779 133.355 208.408C133.84 206.041 136.146 204.51 138.517 204.982L172.19 211.763C174.56 212.248 176.091 214.557 175.617 216.929C175.137 219.301 172.829 220.839 170.455 220.367Z" fill="#2BD0D0"/>
<path d="M149.845 165.668H159.127V205.573C159.127 208.187 157.05 210.307 154.488 210.307C153.257 210.307 152.077 209.808 151.207 208.92C150.338 208.032 149.849 206.828 149.849 205.573V165.668H149.845Z" fill="#2BD0D0"/>
<path d="M153.284 217.55L137.015 222.301C134.649 222.987 132.166 221.659 131.462 219.333C130.768 217.006 132.117 214.565 134.478 213.872L150.746 209.134C153.109 208.451 155.589 209.776 156.295 212.097C156.983 214.421 155.638 216.855 153.284 217.549V217.55Z" fill="#2BD0D0"/>
<path d="M156.475 217.247L154.403 217.619C153.774 217.73 153.134 217.77 152.497 217.736L153.362 217.581C153.935 217.484 154.494 217.312 155.024 217.071L156.475 217.247Z" fill="url(#paint1_linear_31_192)"/>
<path d="M173.051 208.101C173.052 209.145 172.712 210.16 172.083 210.984L158.464 208.041C158.808 207.539 159.056 206.974 159.192 206.376L167.582 203.723C168.122 203.557 168.69 203.506 169.251 203.573C169.811 203.64 170.352 203.825 170.839 204.115C171.834 204.701 172.569 205.686 172.884 206.852C172.992 207.258 173.049 207.679 173.051 208.101Z" fill="url(#paint2_linear_31_192)"/>
<path opacity="0.31" d="M149.328 206.995C149.231 206.647 149.182 206.288 149.182 205.926V166.344H153.122V209.002C153.083 209.211 153.095 209.426 153.16 209.631C152.553 209.416 151.916 209.299 151.273 209.285C150.816 209.258 150.355 209.258 149.897 209.285L150.179 209.218C150.353 209.191 149.556 207.803 149.328 206.995H149.328Z" fill="url(#paint3_linear_31_192)"/>
<path opacity="0.31" d="M173.905 219.641C173.262 219.995 172.539 220.18 171.803 220.179C171.507 220.178 171.212 220.149 170.922 220.091L156.065 217.111L154.827 216.866C154.403 217.19 153.923 217.432 153.413 217.579L152.677 217.794L137.411 222.302C135.081 222.983 132.636 221.664 131.943 219.352C133.267 220.573 135.277 220.686 136.732 219.623C138.596 218.341 146.016 216.415 150.219 215.391C152.205 214.919 153.725 213.328 154.096 211.333C154.107 211.216 154.124 211.099 154.149 210.984C154.849 211.736 156.136 212.581 158.462 213.299C164.191 215.05 173.491 216.21 173.491 216.21C173.491 216.21 175.17 217.846 173.905 219.641Z" fill="url(#paint4_linear_31_192)"/>
<path d="M175.04 218.423C174.684 218.955 174.234 219.413 173.714 219.776C174.161 219.33 174.603 218.88 175.04 218.423Z" fill="url(#paint5_linear_31_192)"/>
<path d="M150.044 206.627C150.229 207.422 150.618 208.153 151.171 208.744C151.031 208.771 150.889 208.806 150.746 208.846L136.642 213.013C134.474 212.463 133.045 210.398 133.298 208.179C133.551 205.961 135.407 204.269 137.645 204.22C137.945 204.221 138.245 204.251 138.54 204.309L150.044 206.627Z" fill="url(#paint6_linear_31_192)"/>
<path d="M171.725 16.4703C171.725 16.4703 171.542 2.3989 160.403 3.61295C149.264 4.82564 150.119 0.166947 145.361 0.678267C140.604 1.19026 135.078 5.94432 136.664 11.8164C138.252 17.6884 132.466 19.0012 128.666 23.4563C124.864 27.9115 129.56 31.5563 135.963 35.912C142.366 40.2677 135.565 39.1402 139.361 46.0268C143.157 52.9127 156.007 44.1161 156.007 44.1161L171.725 16.4703Z" fill="#503164"/>
<path d="M81.3299 249.942L89.1073 250.212V186.807C89.1073 186.807 89.4984 170.412 104.657 168.767C119.814 167.123 257.283 146.809 257.283 146.809C257.283 146.809 262.732 146.22 265.87 156.887C269.008 167.554 272.063 209.498 272.063 209.498L314.258 215.299C314.258 215.299 315.372 141.205 300.134 137.117C284.897 133.028 85.6297 153.863 85.6297 153.863C85.6297 153.863 70.8508 232.558 81.3299 249.942Z" fill="#2BD0D0"/>
<path opacity="0.197" d="M81.3299 249.942L89.1073 250.212V186.807C89.1073 186.807 89.4984 170.412 104.657 168.767C119.814 167.123 257.283 146.809 257.283 146.809C257.283 146.809 262.732 146.22 265.87 156.887C269.008 167.554 272.063 209.498 272.063 209.498L314.258 215.299C314.258 215.299 315.372 141.205 300.134 137.117C284.897 133.028 85.6297 153.863 85.6297 153.863C85.6297 153.863 70.8508 232.558 81.3299 249.942Z" fill="url(#paint7_linear_31_192)"/>
<path d="M41.1079 161.464C41.1079 161.464 44.9163 139.986 71.7027 134.357L260.787 112.279C260.787 112.279 279.349 111.494 287.841 116.734C296.333 121.973 308.454 126.316 313.423 150.026C318.392 173.736 319.58 214.239 319.58 214.239L314.879 214.983C314.879 214.983 308.018 141.64 300.748 136.996C293.48 132.353 96.9322 160.841 96.9322 160.841C96.9322 160.841 83.2997 163.606 82.1122 184.197C80.9254 204.787 82.1122 249.535 82.1122 249.535L41.1079 232.665V161.464Z" fill="#2BD0D0"/>
<path opacity="0.19" d="M235.657 120.924C225.869 119.639 216.002 118.708 206.14 119.084C198.727 119.377 191.363 120.414 184.013 121.446L119.185 130.579C118.085 130.735 116.832 130.987 116.281 131.962C115.226 133.823 117.707 135.657 119.717 136.366C141.272 143.979 164.301 151.689 186.49 146.261C196.634 143.779 206.056 138.626 216.346 136.836C226.635 135.046 237.197 136.694 247.464 135.006C257.115 133.42 266.305 128.913 276.088 128.869C279.088 128.869 282.176 129.259 285.022 128.301C287.868 127.344 290.385 124.42 289.597 121.504C280.412 121.181 270.101 119.47 261.092 121.327C252.175 123.161 244.587 120.924 235.657 120.924Z" fill="url(#paint8_linear_31_192)"/>
<path d="M177.029 131.431L177.407 132.861C177.407 132.861 188.599 139.742 188.529 139.963C188.459 140.185 234.957 128.98 234.957 128.98L236.038 125.764L177.029 131.431Z" fill="#2BD0D0"/>
<path d="M177.029 131.431L177.407 132.861C177.407 132.861 188.599 139.742 188.529 139.963C188.459 140.185 234.957 128.98 234.957 128.98L236.038 125.764L177.029 131.431Z" fill="url(#paint9_linear_31_192)"/>
<path d="M177.692 131.421L218.87 122.382L236.038 125.8L189.256 137.262L177.692 131.421Z" fill="#2BD0D0"/>
<path d="M177.692 131.421L218.87 122.382L236.038 125.8L189.256 137.262L177.692 131.421Z" fill="url(#paint10_linear_31_192)"/>
<path d="M164.32 138.942L173.905 139.288C173.905 139.288 176.34 139.442 176.968 137.45C177.598 135.458 173.063 131.255 172.578 131.176C172.092 131.096 159.476 134.706 161.295 138.315L164.32 138.942Z" fill="#2BD0D0"/>
<path d="M164.32 138.942L173.905 139.288C173.905 139.288 176.34 139.442 176.968 137.45C177.598 135.458 173.063 131.255 172.578 131.176C172.092 131.096 159.476 134.706 161.295 138.315L164.32 138.942Z" fill="url(#paint11_linear_31_192)"/>
<path d="M52.3794 237.399L47.6998 252.06C34.1256 257.032 22.5843 252.06 22.5843 252.06L19.228 236.685C19.228 236.685 36.1585 242.474 52.3794 237.399Z" fill="#2BD0D0"/>
<path d="M52.3794 237.399L47.6998 252.06C34.1256 257.032 22.5843 252.06 22.5843 252.06L19.228 236.685C19.228 236.685 36.1585 242.474 52.3794 237.399Z" fill="url(#paint12_linear_31_192)"/>
<path d="M57.6836 223.834L56.1693 235.293L52.333 237.328C35.9907 242.346 18.9064 236.626 18.9064 236.626L15.9606 234.405L14.5868 223.834H57.6836Z" fill="#2BD0D0"/>
<path d="M57.6836 223.834L56.1693 235.293L52.333 237.328C35.9907 242.346 18.9064 236.626 18.9064 236.626L15.9606 234.405L14.5868 223.834H57.6836Z" fill="url(#paint13_linear_31_192)"/>
<path d="M36.1352 227.216C48.0361 227.216 57.6836 225.399 57.6836 223.158C57.6836 220.917 48.0361 219.1 36.1352 219.1C24.2343 219.1 14.5868 220.917 14.5868 223.158C14.5868 225.399 24.2343 227.216 36.1352 227.216Z" fill="#2BD0D0"/>
<path d="M36.1352 227.216C48.0361 227.216 57.6836 225.399 57.6836 223.158C57.6836 220.917 48.0361 219.1 36.1352 219.1C24.2343 219.1 14.5868 220.917 14.5868 223.158C14.5868 225.399 24.2343 227.216 36.1352 227.216Z" fill="url(#paint14_linear_31_192)"/>
<path d="M26.2833 135.253C24.1736 134.228 21.9053 133.455 20.08 131.959C16.4022 128.915 15.47 123.675 14.3183 118.974C13.1673 114.273 10.9389 109.104 6.3991 107.756C4.70042 107.257 2.70802 107.455 1.41644 108.696C0.0552425 110.003 -0.22124 112.152 0.151382 114.049C0.52334 115.945 1.4297 117.644 2.13052 119.442C3.76648 123.62 4.26408 128.172 3.57062 132.615C2.9971 136.26 1.62662 139.954 2.50646 143.527C3.9996 149.59 11.4374 153.145 11.643 159.392C11.7835 163.608 8.40409 167.509 9.16989 171.658C9.73479 174.727 12.4883 177.123 12.6375 180.242C12.8033 183.779 9.54649 186.772 9.70429 190.31C9.86143 193.847 13.3025 196.211 15.5489 198.993C17.4334 201.334 18.5525 204.218 18.7493 207.24C18.8673 209.128 18.6306 211.083 19.2307 212.872C19.6683 214.179 20.5435 215.29 21.2224 216.467C21.9716 217.739 22.5359 219.115 23.4376 220.292C24.566 221.757 26.1014 222.841 27.8431 223.402C29.5848 223.964 31.452 223.976 33.2007 223.438C33.8969 218.737 33.2882 213.942 33.4812 209.19C33.8617 199.986 37.2544 190.71 35.083 181.775C34.2867 178.498 32.7545 175.388 32.4826 172.026C32.242 169.023 33.021 166.049 33.564 163.087C34.6845 156.97 34.6673 150.646 34.2072 144.462C33.8445 139.554 30.4823 137.293 26.284 135.253H26.2833Z" fill="#2BD0D0"/>
<path d="M39.6174 159.423C39.5823 163.523 40.4993 167.763 39.2117 171.655C38.237 174.605 36.0941 177.021 34.9875 179.922C32.4349 186.617 35.8693 194.126 35.1685 201.275C34.8768 204.219 33.8849 207.049 33.259 209.941C32.4814 213.602 32.2909 217.367 32.6948 221.09C32.6537 221.769 32.8542 222.439 33.2592 222.979C33.6643 223.518 34.2467 223.891 34.8993 224.027C37.0599 224.866 39.2979 225.481 41.5793 225.863C40.808 221.528 41.6206 217.055 43.8635 213.29C47.3603 207.453 54.155 203.519 55.4201 196.815C56.2754 192.275 54.283 187.668 54.4242 183.048C54.526 179.972 55.5647 177.006 57.3959 174.561C59.0402 172.378 61.2673 170.69 62.7976 168.426C66.4747 162.971 65.3284 155.679 64.235 149.154C63.141 142.63 62.5065 135.122 66.8275 130.178C68.1946 128.616 69.9755 127.443 71.2147 125.773C73.9749 122.05 73.2781 116.316 70.0677 112.989C66.8586 109.661 61.6903 108.741 57.3256 110.205C55.4849 110.757 53.8596 111.883 52.6778 113.424C50.4732 116.613 51.355 120.968 52.2899 124.758C53.1054 128.05 53.7625 131.848 52.6473 135.167C51.8139 137.636 49.7014 138.975 47.9066 140.694C45.3638 143.089 43.3196 145.981 41.8955 149.199C40.4714 152.417 39.6967 155.894 39.6174 159.423Z" fill="#2BD0D0"/>
<path d="M35.1818 195.781C34.5598 200.24 33.6621 204.735 33.4778 209.207V209.657C33.4683 209.768 33.4435 209.877 33.4042 209.98C32.6273 213.645 32.4334 217.413 32.83 221.141C32.8539 221.745 33.0031 222.337 33.2676 222.876C33.2464 223.065 33.2199 223.249 33.194 223.438C31.4447 223.976 29.577 223.964 27.8347 223.402C26.0924 222.841 24.5566 221.757 23.4276 220.291C22.5524 219.114 21.9603 217.738 21.2118 216.467C20.5109 215.284 19.657 214.174 19.2194 212.871C18.6193 211.072 18.8554 209.126 18.7373 207.239C18.5407 204.216 17.4213 201.331 15.5362 198.99C13.2892 196.226 9.84281 193.906 9.68965 190.31C9.5365 186.714 12.79 183.779 12.6236 180.241C12.475 177.122 9.72015 174.726 9.15592 171.657C8.38879 167.507 11.7828 163.606 11.6297 159.39C11.4241 153.142 3.98363 149.586 2.48983 143.522C1.61463 139.949 2.98047 136.254 3.55399 132.609C4.25091 128.171 3.7593 123.623 2.13113 119.447C1.43031 117.649 0.523951 115.955 0.151329 114.053C-0.22063 112.153 0.0551903 110.008 1.41705 108.695C2.73117 107.455 4.70169 107.257 6.40103 107.756C10.9468 109.104 13.1666 114.292 14.3229 118.993C15.4792 123.695 16.4075 128.932 20.0859 131.979C21.904 133.485 24.1808 134.249 26.2919 135.274C30.4955 137.315 33.859 139.576 34.2184 144.439C34.656 150.624 34.6958 156.949 33.5752 163.066C33.0316 166.029 32.2611 169.005 32.4932 172.007C32.7252 175.01 33.9996 177.851 34.8317 180.763C34.9238 181.091 35.0153 181.424 35.0942 181.756C36.1982 186.382 35.8435 191.061 35.1818 195.781Z" fill="#30C59B"/>
<path d="M32.9646 222.481C32.7642 221.943 32.6518 221.374 32.6318 220.799C32.3467 217.173 32.4886 213.508 33.0541 209.945C33.0694 209.84 33.0886 209.736 33.1072 209.631C32.9938 213.923 33.3552 218.25 32.9646 222.481Z" fill="url(#paint15_linear_31_192)"/>
<path d="M71.2048 125.773C69.9643 127.444 68.18 128.615 66.8109 130.178C62.4833 135.117 63.1192 142.63 64.2145 149.154C65.3091 155.679 66.4575 162.971 62.7744 168.427C61.2428 170.672 59.0124 172.378 57.3647 174.561C55.5308 177.005 54.4901 179.972 54.3877 183.048C54.2472 187.668 56.2429 192.275 55.3863 196.815C54.1192 203.519 47.3139 207.462 43.8118 213.291C41.5742 217.058 40.7666 221.53 41.5416 225.863C39.2625 225.481 37.0269 224.866 34.8688 224.027C34.2791 223.849 33.744 223.519 33.3147 223.07C33.2537 222.997 33.199 222.919 33.1509 222.837C32.8773 222.302 32.7193 221.714 32.6875 221.112C32.2903 217.388 32.4886 213.623 33.2749 209.963C33.2968 209.855 33.3233 209.747 33.3498 209.64C33.9771 206.86 34.9047 204.134 35.1871 201.296C35.3373 199.456 35.3018 197.606 35.081 195.773C35.748 191.058 36.1054 186.384 34.9796 181.794C34.9 181.463 34.8072 181.13 34.7144 180.802C34.7986 180.515 34.8954 180.227 35.0061 179.945C36.1147 177.044 38.2609 174.628 39.2362 171.678C40.5218 167.784 39.6075 163.546 39.6427 159.446C39.7003 152.364 42.8404 145.527 47.8834 140.694C49.6802 138.975 51.796 137.637 52.6307 135.167C53.7479 131.848 53.0723 128.05 52.2727 124.758C51.3325 120.968 50.4401 116.613 52.6619 113.424C53.7658 111.844 55.5063 110.816 57.3163 110.205C61.6704 108.741 66.8686 109.661 70.079 112.989C73.2893 116.316 73.9696 122.072 71.2048 125.773Z" fill="#30C59B"/>
<path d="M149.561 54.8457C149.561 54.8457 131.118 57.754 122.587 78.5023C114.056 99.2507 118.492 124.956 118.641 127.218C118.79 129.479 144.783 139.291 152.214 139.291C159.645 139.291 161.192 131.696 161.192 131.696L148.062 125.992L187.957 121.292H195.12L191.174 128.077C191.174 128.077 198.96 128.909 204.165 129.099C209.368 129.289 212.902 118.792 213.485 113.571C214.068 108.352 190.5 62.5351 186.979 59.8216C183.458 57.1074 173.906 50.4765 149.561 54.8457Z" fill="#2BD0D0"/>
<path d="M171.321 16.0436C171.321 16.0436 174.658 17.9576 174.358 24.1496C174.058 30.3416 172.177 39.6596 170.278 42.0728C168.379 44.4874 161.739 45.4329 161.739 45.4329C161.739 45.4329 165.361 54.2099 168.057 56.475C170.753 58.7401 165.348 67.0849 160.091 64.347C154.834 61.6085 148.74 54.7321 148.74 54.7321C148.74 54.7321 153.124 46.4502 151.641 42.0911C150.159 37.732 144.499 22.4337 148.74 18.2552C152.981 14.0754 162.124 8.08632 171.321 16.0436Z" fill="url(#paint16_linear_31_192)"/>
<path opacity="0.25" d="M142.11 84.5063L139.236 121.066L148.013 125.764L155.149 124.493L146.246 113.331L142.11 84.5063ZM188.3 82.4772C188.3 82.4772 200.174 110.936 194.911 121.029L190.855 120.245L188.3 82.4772Z" fill="white"/>
<path d="M156.158 130.528C156.158 130.528 151.672 134.434 153.674 137.473C155.677 140.51 158.067 140.423 160.06 139.065C162.053 137.707 165.968 134.482 170.632 135.962C175.297 137.442 176.43 138.384 176.43 138.384C176.43 138.384 178.887 136.817 178.249 135.246C177.612 133.675 172.733 128.584 171.319 127.925C169.906 127.265 164.037 129.291 164.037 129.291C164.037 129.291 159.726 128.102 156.158 130.529V130.528Z" fill="url(#paint17_linear_31_192)"/>
<path d="M195.72 122.11C195.72 122.11 191.487 122.623 190.417 125.463C189.348 128.302 188.963 128.648 188.963 128.648C188.963 128.648 191.354 129.115 192.349 127.793C193.343 126.472 194.377 127.027 194.377 127.027L194.081 128.723C194.081 128.723 200.577 129.722 203.511 128.648C206.445 127.573 207.705 126.313 207.705 126.313L208.854 123.445C208.854 123.445 206.083 121.396 203.993 121.078C201.903 120.76 195.72 122.11 195.72 122.11Z" fill="url(#paint18_linear_31_192)"/>
<path d="M218.066 152.141C218.066 152.141 232.608 163.427 231.315 178.694C230.023 193.96 228.124 216.628 228.124 216.628C228.124 216.628 222.259 219.146 218.373 216.628C214.486 214.111 212.133 179.666 210.208 176.377C208.283 173.087 196.699 158.257 184.322 156.98L218.066 152.141Z" fill="#25233A"/>
<path d="M145.203 163.002C145.203 163.002 152.128 169.694 164.472 171.796C176.817 173.897 182.571 175.651 186.344 186.408C190.116 197.166 193.735 220.318 194.92 222.906C196.104 225.494 201.14 224.174 201.14 224.174C201.14 224.174 203.989 220.863 203.989 202.453C203.989 176.789 205.749 171.528 199.405 165.081C193.061 158.633 187.29 156.876 187.29 156.876L145.203 163.002Z" fill="#3F3D56"/>
<path d="M194.931 223.834L196.137 233.436H198.397C198.397 233.436 212.949 234.239 213.405 233.893C213.861 233.546 212.704 226.289 207.191 226.494C201.678 226.699 201.316 225.125 201.316 225.125L194.931 223.834ZM219.463 217.176L221.795 226.54L247.28 223.014C247.28 223.014 248.177 216.864 240.104 217.474C237.973 217.633 236.386 219.142 233.824 219.155C231.263 219.169 228.81 218.112 227.518 216.394L219.463 217.176Z" fill="#25233A"/>
<path d="M306.189 99.6139L211.878 104.791C209.597 104.913 207.651 103.12 207.528 100.783V32.071C207.53 29.2973 209.694 27.0336 212.4 26.9747L306.325 24.9883C306.922 24.976 307.516 25.0842 308.072 25.3067C308.628 25.5293 309.135 25.8617 309.565 26.2849C310.435 27.142 310.937 28.3159 310.96 29.5496V94.4595C310.957 97.2027 308.863 99.4658 306.189 99.6139Z" fill="#2BD0D0"/>
<path d="M311.494 99.6139L217.178 104.791C214.897 104.911 212.953 103.115 212.832 100.778V32.071C212.83 29.2966 214.994 27.0308 217.7 26.9747L311.638 24.9883C314.142 24.9409 316.212 26.9788 316.265 29.5455V94.4594C316.261 97.2034 314.167 99.4664 311.494 99.6139Z" fill="#2BD0D0"/>
<path d="M311.494 99.6139L217.178 104.791C214.897 104.911 212.953 103.115 212.832 100.778V32.071C212.83 29.2966 214.994 27.0308 217.7 26.9747L311.638 24.9883C314.142 24.9409 316.212 26.9788 316.265 29.5455V94.4594C316.261 97.2034 314.167 99.4664 311.494 99.6139Z" fill="url(#paint19_linear_31_192)"/>
<path d="M283.626 125.857L259.561 128.469C259.561 128.469 252.233 126.961 252.629 125.857C253.026 124.752 260.689 123.689 260.689 123.689V79.1828C260.623 79.084 259.614 77.7732 256.851 76.938C256.316 76.7763 255.771 76.6471 255.22 76.5524C254.747 76.4819 254.287 76.3396 253.855 76.1304C252.211 75.2647 254.027 73.7564 256.578 73.6888C256.977 73.6744 257.377 73.6984 257.772 73.7605H276.28C276.28 73.7605 283.286 75.7713 283.626 85.8069C283.965 95.8433 283.626 125.857 283.626 125.857Z" fill="#3A3054"/>
<path d="M263.886 125.951L259.458 128.469C259.458 128.469 252.239 126.961 252.629 125.856C253.02 124.752 260.582 123.689 260.582 123.689V79.1787C260.491 79.0759 259.384 77.895 256.801 76.9345C255.84 76.5847 254.853 76.3144 253.849 76.1263C252.23 75.2606 254.018 73.7523 256.532 73.6847C258.672 73.9857 262.887 76.409 263.161 77.7922C263.434 79.1746 263.886 125.951 263.886 125.951Z" fill="#51466B"/>
<path d="M174.377 219.1C173.793 219.777 173.521 220.026 173.866 219.47C174.045 219.362 174.216 219.238 174.377 219.1Z" fill="url(#paint20_linear_31_192)"/>
<defs>
<linearGradient id="paint0_linear_31_192" x1="134.595" y1="216.056" x2="141.888" y2="216.056" gradientUnits="userSpaceOnUse">
<stop stop-color="#183866"/>
<stop offset="1" stop-color="#1A7FC1"/>
</linearGradient>
<linearGradient id="paint1_linear_31_192" x1="152.492" y1="217.409" x2="156.475" y2="217.409" gradientUnits="userSpaceOnUse">
<stop/>
<stop offset="0.99" stop-opacity="0"/>
</linearGradient>
<linearGradient id="paint2_linear_31_192" x1="184.147" y1="161.435" x2="201.222" y2="169.263" gradientUnits="userSpaceOnUse">
<stop/>
<stop offset="0.99" stop-opacity="0"/>
</linearGradient>
<linearGradient id="paint3_linear_31_192" x1="151.526" y1="54.6666" x2="149.191" y2="54.0433" gradientUnits="userSpaceOnUse">
<stop/>
<stop offset="0.99" stop-opacity="0"/>
</linearGradient>
<linearGradient id="paint4_linear_31_192" x1="198.182" y1="203.708" x2="140.796" y2="185.332" gradientUnits="userSpaceOnUse">
<stop/>
<stop offset="0.99" stop-opacity="0"/>
</linearGradient>
<linearGradient id="paint5_linear_31_192" x1="205.022" y1="-5.92029" x2="202.382" y2="-6.73747" gradientUnits="userSpaceOnUse">
<stop/>
<stop offset="0.99" stop-opacity="0"/>
</linearGradient>
<linearGradient id="paint6_linear_31_192" x1="176.482" y1="166.759" x2="158.039" y2="171.566" gradientUnits="userSpaceOnUse">
<stop/>
<stop offset="0.99" stop-opacity="0"/>
</linearGradient>
<linearGradient id="paint7_linear_31_192" x1="330.49" y1="162.153" x2="-6.63654" y2="146.244" gradientUnits="userSpaceOnUse">
<stop/>
<stop offset="1" stop-opacity="0"/>
</linearGradient>
<linearGradient id="paint8_linear_31_192" x1="140.643" y1="106.978" x2="314.355" y2="106.978" gradientUnits="userSpaceOnUse">
<stop stop-color="#183866"/>
<stop offset="1" stop-color="#1A7FC1"/>
</linearGradient>
<linearGradient id="paint9_linear_31_192" x1="200.86" y1="131.376" x2="203.034" y2="139.657" gradientUnits="userSpaceOnUse">
<stop/>
<stop offset="0.99" stop-opacity="0"/>
</linearGradient>
<linearGradient id="paint10_linear_31_192" x1="170.38" y1="129.066" x2="227.165" y2="146.878" gradientUnits="userSpaceOnUse">
<stop/>
<stop offset="0.99" stop-opacity="0"/>
</linearGradient>
<linearGradient id="paint11_linear_31_192" x1="169.661" y1="134.605" x2="169.228" y2="137.869" gradientUnits="userSpaceOnUse">
<stop/>
<stop offset="0.99" stop-opacity="0"/>
</linearGradient>
<linearGradient id="paint12_linear_31_192" x1="82.5227" y1="178.083" x2="53.1238" y2="176.97" gradientUnits="userSpaceOnUse">
<stop/>
<stop offset="0.99" stop-opacity="0"/>
</linearGradient>
<linearGradient id="paint13_linear_31_192" x1="87.2386" y1="204.195" x2="62.6767" y2="203.372" gradientUnits="userSpaceOnUse">
<stop/>
<stop offset="0.99" stop-opacity="0"/>
</linearGradient>
<linearGradient id="paint14_linear_31_192" x1="39.1473" y1="222.64" x2="38.2162" y2="227.152" gradientUnits="userSpaceOnUse">
<stop/>
<stop offset="0.99" stop-opacity="0"/>
</linearGradient>
<linearGradient id="paint15_linear_31_192" x1="32.8738" y1="20.2677" x2="30.7316" y2="33.197" gradientUnits="userSpaceOnUse">
<stop/>
<stop offset="0.99" stop-opacity="0"/>
</linearGradient>
<linearGradient id="paint16_linear_31_192" x1="147.182" y1="38.5109" x2="174.376" y2="38.5109" gradientUnits="userSpaceOnUse">
<stop stop-color="#ECC4D7"/>
<stop offset="0.42" stop-color="#EFD4D1"/>
<stop offset="1" stop-color="#F2EAC9"/>
</linearGradient>
<linearGradient id="paint17_linear_31_192" x1="178.111" y1="107.913" x2="203.306" y2="107.913" gradientUnits="userSpaceOnUse">
<stop stop-color="#ECC4D7"/>
<stop offset="0.42" stop-color="#EFD4D1"/>
<stop offset="1" stop-color="#F2EAC9"/>
</linearGradient>
<linearGradient id="paint18_linear_31_192" x1="213.689" y1="114.166" x2="233.58" y2="114.166" gradientUnits="userSpaceOnUse">
<stop stop-color="#ECC4D7"/>
<stop offset="0.42" stop-color="#EFD4D1"/>
<stop offset="1" stop-color="#F2EAC9"/>
</linearGradient>
<linearGradient id="paint19_linear_31_192" x1="346.146" y1="105.084" x2="250.804" y2="167.243" gradientUnits="userSpaceOnUse">
<stop stop-color="#362958" stop-opacity="0.501"/>
<stop offset="1" stop-color="#34313D" stop-opacity="0"/>
</linearGradient>
<linearGradient id="paint20_linear_31_192" x1="200.162" y1="-12.2836" x2="199.386" y2="-12.5651" gradientUnits="userSpaceOnUse">
<stop/>
<stop offset="0.99" stop-opacity="0"/>
</linearGradient>
</defs>
</svg>
