<svg width="91" height="92" viewBox="0 0 91 92" fill="none" xmlns="http://www.w3.org/2000/svg">
<g filter="url(#filter0_d_31_120)">
<ellipse cx="45.5" cy="42" rx="41.5" ry="42" fill="#F7DF1E"/>
<path d="M29.0002 49.0975L32.8264 46.7818C33.5646 48.0906 34.2361 49.198 35.8469 49.198C37.3908 49.198 38.3645 48.5941 38.3645 46.2449V30.2687H43.0631V46.3113C43.0631 51.1779 40.2104 53.3932 36.0482 53.3932C32.2895 53.3932 30.1076 51.4465 29 49.0971L29.0002 49.0975ZM45.6152 48.5939L49.441 46.3789C50.4482 48.0236 51.7572 49.2318 54.0729 49.2318C56.0199 49.2318 57.2613 48.2584 57.2613 46.9158C57.2613 45.3049 55.9859 44.7342 53.8379 43.7947L52.6635 43.2908C49.2734 41.848 47.0248 40.0355 47.0248 36.2094C47.0248 32.6852 49.7098 30 53.9053 30C56.8924 30 59.0404 31.0406 60.5842 33.7592L56.9256 36.1088C56.1199 34.6656 55.2477 34.0951 53.9051 34.0951C52.5289 34.0951 51.6563 34.9678 51.6563 36.1088C51.6563 37.5184 52.5289 38.0893 54.5426 38.9619L55.7172 39.4652C59.7113 41.1771 61.96 42.9223 61.96 46.8488C61.96 51.0781 58.6373 53.3937 54.1734 53.3937C49.8104 53.3937 46.991 51.3129 45.615 48.5941" fill="black"/>
</g>
<defs>
<filter id="filter0_d_31_120" x="0" y="0" width="91" height="92" filterUnits="userSpaceOnUse" color-interpolation-filters="sRGB">
<feFlood flood-opacity="0" result="BackgroundImageFix"/>
<feColorMatrix in="SourceAlpha" type="matrix" values="0 0 0 0 0 0 0 0 0 0 0 0 0 0 0 0 0 0 127 0" result="hardAlpha"/>
<feOffset dy="4"/>
<feGaussianBlur stdDeviation="2"/>
<feComposite in2="hardAlpha" operator="out"/>
<feColorMatrix type="matrix" values="0 0 0 0 0 0 0 0 0 0 0 0 0 0 0 0 0 0 0.25 0"/>
<feBlend mode="normal" in2="BackgroundImageFix" result="effect1_dropShadow_31_120"/>
<feBlend mode="normal" in="SourceGraphic" in2="effect1_dropShadow_31_120" result="shape"/>
</filter>
</defs>
</svg>
