<svg width="91" height="92" viewBox="0 0 91 92" fill="none" xmlns="http://www.w3.org/2000/svg">
<g filter="url(#filter0_d_31_160)">
<ellipse cx="45.5" cy="42" rx="41.5" ry="42" fill="#2F2020"/>
</g>
<g clip-path="url(#clip0_31_160)">
<path d="M35.874 44.3951L37.3936 50.1815C37.735 51.4953 37.8773 52.4125 37.8203 52.9352C38.6514 50.323 39.232 47.4762 39.5624 44.3951H41.3896C40.6039 49.4112 39.5677 53.0564 38.2814 55.3303C37.2793 57.0826 36.1814 57.9587 34.9859 57.9587C34.6672 57.9587 34.2742 57.8457 33.8079 57.6213V56.4121C34.0357 56.4513 34.303 56.4723 34.6104 56.4723C35.1682 56.4723 35.6177 56.2909 35.9597 55.9288C36.3691 55.4877 36.5741 54.9919 36.5741 54.4423C36.5741 54.067 36.4143 53.297 36.096 52.132L33.9788 44.3951H35.874ZM24.2444 40.8385L27.0276 50.8048H27.0448L29.8451 40.8385H32.133C32.634 45.7811 32.9299 50.3034 33.0207 54.4025H31.0918C31.0239 50.5706 30.8359 46.9674 30.5285 43.5922H30.5117L27.5744 54.4025H26.1055L23.1859 43.5922H23.1688C22.9521 46.8337 22.8158 50.4369 22.759 54.4025H21C21.1137 49.5796 21.3981 45.0587 21.8534 40.8385H24.2444Z" fill="#00758F"/>
<path d="M55.4237 40.6372C58.4175 40.6372 59.9145 42.882 59.9145 47.3695C59.9145 49.808 59.4643 51.6499 58.5648 52.8943C58.4027 53.1217 58.2235 53.3181 58.0348 53.5001L60.1534 54.7296L60.1514 54.7295L59.3991 56.2541L56.6401 54.3647C56.1827 54.5236 55.6795 54.6031 55.1312 54.6031C53.6612 54.6031 52.5631 54.1002 51.8371 53.0959C51.0403 51.9848 50.642 50.2357 50.642 47.8515C50.642 45.4268 51.0914 43.5918 51.9912 42.3459C52.8108 41.2061 53.9551 40.6371 55.4237 40.6371V40.6372ZM46.2557 40.6569C47.3257 40.6569 48.2987 40.993 49.175 41.6626L48.7299 42.8268C47.98 42.4527 47.2407 42.2648 46.5115 42.2648C45.9199 42.2648 45.4641 42.4319 45.1463 42.7682C44.8268 43.1015 44.6291 43.5304 44.6291 44.0532C44.6291 44.8567 45.1168 45.5534 46.0173 46.1421C46.3123 46.3313 46.6063 46.5228 46.8992 46.7164L46.9664 46.7608L47.0001 46.783L47.0674 46.8273L47.101 46.8496L47.1682 46.894C47.8498 47.3451 48.4912 47.7755 48.4912 47.7755C49.3916 48.5257 49.8405 49.3255 49.8405 50.6427C49.8405 51.7931 49.4813 52.7374 48.7653 53.4763C48.0488 54.2119 47.0862 54.5807 45.8807 54.5807C44.7532 54.5807 43.6606 54.1562 42.6022 53.3142L43.0973 52.1491C44.0081 52.6849 44.8323 52.9525 45.5725 52.9525C46.2666 52.9525 46.81 52.7706 47.2031 52.4114C47.5953 52.0496 47.8304 51.5449 47.8304 50.9051C47.8304 50.0997 47.3531 49.4112 46.4774 48.8336C46.2033 48.6559 45.93 48.4765 45.6575 48.2953L45.5905 48.2507C45.4672 48.169 45.3431 48.0863 45.2215 48.0052L45.1556 47.9612C44.5643 47.5665 44.0531 47.2216 44.0531 47.2216C43.1777 46.4701 42.7387 45.6638 42.7387 44.3352C42.7387 43.2364 43.066 42.3483 43.7198 41.6726C44.375 40.9955 45.2204 40.6569 46.2557 40.6569ZM63.4329 40.8385V52.7339H67.0695V54.4025H61.5886V40.8385H63.4329ZM69.0902 52.7391V53.021H68.6904V54.401H68.3847V53.021H67.9694V52.7391H69.0903H69.0902ZM69.8284 52.7391L70.2123 53.8719L70.565 52.7391H70.9983V54.401H70.7102V53.1362L70.3088 54.401H70.1011L69.699 53.1362H69.6836V54.401H69.4111V52.7391H69.8285H69.8284ZM55.2354 42.3053C53.4711 42.3053 52.5885 44.0142 52.5885 47.4296C52.5885 49.3861 52.8224 50.8048 53.2893 51.689C53.7217 52.5073 54.399 52.9157 55.3211 52.9157C57.0854 52.9157 57.9679 51.1935 57.9679 47.7508C57.9679 45.8217 57.734 44.4152 57.2677 43.5305C56.8348 42.714 56.1578 42.3053 55.2355 42.3053H55.2354Z" fill="#F29111"/>
<path d="M50.6111 18.8405C51.1964 17.1527 53.2427 18.4308 54.0369 19.0204C54.2315 19.1679 54.4548 19.4795 54.6779 19.5947C55.026 19.6108 55.3739 19.6428 55.7226 19.6598C56.3767 19.8402 56.9894 19.9876 57.5049 20.3322C59.9002 21.9877 61.4594 23.6748 62.8945 26.4616C63.2011 27.0518 63.3544 27.6905 63.6049 28.3293C63.9525 29.2814 64.3431 30.2808 64.7467 31.1811C64.9273 31.6079 65.0671 32.0825 65.3179 32.443C65.4159 32.6078 65.6941 32.6564 65.8604 32.7548C66.3202 33.0342 66.8772 33.2462 67.3096 33.574C68.1172 34.1649 68.8979 34.8691 69.6077 35.59C69.8722 35.8683 70.0525 36.2622 70.3046 36.5566V36.7051C70.0808 36.7857 69.8579 36.8682 69.6347 36.9343C69.1473 37.0813 68.7156 37.048 68.2427 37.1951C67.9506 37.2946 67.5878 37.4258 67.2813 37.4591L67.3096 37.4926C67.4899 38.0972 68.4653 38.5889 68.9114 38.9505C69.4532 39.4094 69.9552 39.966 70.3594 40.6052C70.4989 40.7683 70.6385 40.9167 70.7773 41.0793C70.8744 41.2441 70.9017 41.4573 71 41.6042V41.654C70.8912 41.6089 70.813 41.523 70.7388 41.4331L70.6946 41.3789C70.6504 41.325 70.6057 41.2721 70.5549 41.2284C70.2474 40.982 69.9422 40.6872 69.6347 40.4581C69.1062 40.0645 68.4932 39.8361 67.9506 39.441C67.6437 39.2117 67.3512 38.9505 67.0588 38.688C66.7936 38.458 66.5016 38.0163 66.335 37.6885C66.2369 37.5074 66.2234 37.2946 66.1113 37.1636C66.1313 36.9448 66.3021 36.8798 66.4745 36.8264L66.5141 36.8141C66.5736 36.796 66.6318 36.7779 66.6826 36.7539C67.4066 36.3931 68.2698 36.2622 69.3844 36.295C69.3425 35.9665 68.646 35.5573 68.4236 35.3606C67.9773 34.983 67.5048 34.5891 67.0313 34.2455C66.7804 34.0656 66.3481 33.9342 66.0702 33.7872C65.6941 33.6068 64.8583 33.4265 64.6499 33.0829C64.2959 32.5412 64.0416 31.8951 63.7947 31.2425L63.7275 31.0644C63.7051 31.0051 63.6826 30.9457 63.6601 30.8864C63.3683 30.1005 63.0058 29.2812 62.7133 28.4765C62.5604 28.0839 62.4902 27.7394 62.3227 27.3629C61.3064 25.0525 59.8022 23.1182 57.9785 21.7578C57.3792 21.3152 56.7109 20.9056 55.9732 20.6272C55.5551 20.479 55.0534 20.5609 54.608 20.4472H54.3148C54.0646 20.3645 53.8557 20.0532 53.6605 19.8891C53.2294 19.5455 52.7975 19.3147 52.2819 19.0696C52.1012 18.9712 51.5853 18.7422 51.4052 18.9225C51.2937 18.9554 51.2372 19.0048 51.2097 19.1362C51.0988 19.3322 51.1964 19.6274 51.2654 19.8081C51.4746 20.3319 51.7668 20.6432 52.032 21.0859C52.2679 21.4784 52.561 21.921 52.7283 22.3479C53.0892 23.2653 53.2573 24.2818 53.5918 25.1992C53.7158 25.5442 53.912 25.9367 54.0925 26.2479C54.2456 26.4949 54.5238 26.6735 54.608 26.9861C54.7758 27.3139 54.3568 28.3955 54.2598 28.739C53.897 30.0831 53.9674 31.9514 54.3851 33.1165L54.4074 33.1779L54.4297 33.2401C54.5822 33.6668 54.7455 34.1263 55.151 34.2456C55.179 34.2131 55.151 34.2301 55.2064 34.2131C55.3046 33.3113 55.3322 32.4429 55.597 31.7373C55.7501 31.2962 56.0556 30.9843 56.2651 30.6242C56.4048 30.7223 56.4048 31.0181 56.488 31.2139C56.6692 31.7216 56.8638 32.2783 57.0873 32.7875C57.5459 33.8362 58.0619 34.853 58.6466 35.7703C58.8424 36.098 59.1202 36.4587 59.3708 36.7538C59.4824 36.8681 59.6074 36.9341 59.6913 37.0812H59.7186V37.1307C59.3009 36.9499 59.036 36.4426 58.7028 36.1465C58.0755 35.5898 57.3242 34.7538 56.8918 33.9516C56.7109 33.4911 56.5154 33.0497 56.3205 32.5915V32.5584C56.2372 32.6893 56.2651 32.8193 56.2234 33.0173C56.0425 33.8362 56.1818 34.7704 55.5551 35.065C54.8448 35.41 54.3149 34.5083 54.0925 34.0986C53.382 32.7386 53.1874 30.4442 53.6884 28.5922C53.7998 28.1822 53.8149 27.6905 54.0092 27.3632C53.9673 27.0673 53.7729 26.9864 53.6605 26.805C53.4656 26.4951 53.2987 26.1341 53.1461 25.7899C52.8529 25.1176 52.6443 24.3143 52.4217 23.5932C52.3239 23.2988 52.2959 23.0032 52.1983 22.7245C52.0319 22.299 51.7252 21.8722 51.4885 21.4958C51.1681 20.9548 50.2349 19.9064 50.6111 18.8405ZM55.1787 22.0514C55.2159 22.0951 55.2608 22.1334 55.3073 22.1711L55.3633 22.2163C55.4381 22.277 55.5104 22.341 55.5548 22.4281C55.6251 22.5434 55.6382 22.6572 55.7223 22.7727C55.7223 23.1667 55.6251 23.4285 55.4287 23.5918C55.4287 23.5918 55.4153 23.6089 55.4015 23.625C55.2902 23.3624 55.1926 23.1012 55.0805 22.8389C54.9424 22.6099 54.7472 22.4282 54.6347 22.1665H54.6077V22.1336C54.7758 22.0849 54.9424 22.0514 55.1787 22.0514Z" fill="#00758F"/>
</g>
<defs>
<filter id="filter0_d_31_160" x="0" y="0" width="91" height="92" filterUnits="userSpaceOnUse" color-interpolation-filters="sRGB">
<feFlood flood-opacity="0" result="BackgroundImageFix"/>
<feColorMatrix in="SourceAlpha" type="matrix" values="0 0 0 0 0 0 0 0 0 0 0 0 0 0 0 0 0 0 127 0" result="hardAlpha"/>
<feOffset dy="4"/>
<feGaussianBlur stdDeviation="2"/>
<feComposite in2="hardAlpha" operator="out"/>
<feColorMatrix type="matrix" values="0 0 0 0 0 0 0 0 0 0 0 0 0 0 0 0 0 0 0.25 0"/>
<feBlend mode="normal" in2="BackgroundImageFix" result="effect1_dropShadow_31_160"/>
<feBlend mode="normal" in="SourceGraphic" in2="effect1_dropShadow_31_160" result="shape"/>
</filter>
<clipPath id="clip0_31_160">
<rect width="50" height="40" fill="white" transform="translate(21 18)"/>
</clipPath>
</defs>
</svg>
