<svg width="91" height="92" viewBox="0 0 91 92" fill="none" xmlns="http://www.w3.org/2000/svg">
<g filter="url(#filter0_d_31_135)">
<ellipse cx="45.5" cy="42" rx="41.5" ry="42" fill="#ECC4D7"/>
</g>
<path d="M16.4982 25.0112C16.3343 25.0417 16.1812 25.1341 16.0581 25.2766C15.935 25.419 15.8476 25.6052 15.8068 25.8116C15.766 26.0179 15.7738 26.2352 15.829 26.4359C15.8843 26.6366 15.9846 26.8117 16.1173 26.9391C16.25 27.0666 16.409 27.1406 16.5744 27.1518C16.7398 27.163 16.9041 27.1109 17.0464 27.0021C17.1888 26.8933 17.3029 26.7327 17.3742 26.5406C17.4456 26.3484 17.4711 26.1334 17.4474 25.9227C17.4317 25.7827 17.3946 25.6481 17.3384 25.5265C17.2822 25.4049 17.2079 25.2988 17.1197 25.2141C17.0316 25.1295 16.9313 25.068 16.8247 25.0331C16.7181 24.9983 16.6071 24.9908 16.4982 25.0112ZM18.9549 25.0183C18.729 25.0443 18.5189 25.1781 18.366 25.3933C18.2131 25.6086 18.1283 25.8896 18.1285 26.1811C18.1282 26.3352 18.1516 26.4878 18.1973 26.6302C18.2431 26.7726 18.3104 26.9019 18.3953 27.0107C18.4801 27.1195 18.5809 27.2056 18.6918 27.264C18.8028 27.3224 18.9216 27.352 19.0414 27.351C19.1606 27.3506 19.2785 27.3199 19.3884 27.2609C19.4983 27.2018 19.5981 27.1155 19.6821 27.0069C19.7661 26.8982 19.8326 26.7694 19.8779 26.6277C19.9232 26.486 19.9463 26.3343 19.9459 26.1811C19.9452 25.8724 19.8492 25.5766 19.6792 25.3587C19.5091 25.1407 19.2788 25.0183 19.0386 25.0183C19.0107 25.0167 18.9828 25.0167 18.9549 25.0183ZM14.3068 26.4251C14.1066 26.4633 13.9262 26.6017 13.8049 26.81C13.6836 27.0184 13.6312 27.2799 13.6592 27.5376C13.7206 28.0759 14.1058 28.4456 14.5246 28.3666C14.6236 28.3486 14.7188 28.3056 14.8048 28.24C14.8908 28.1744 14.9658 28.0875 15.0255 27.9844C15.0852 27.8812 15.1285 27.7639 15.1527 27.6392C15.1769 27.5145 15.1816 27.3848 15.1666 27.2577C15.1383 27.0009 15.0318 26.769 14.8706 26.6129C14.7094 26.4568 14.5067 26.3893 14.3068 26.4251ZM20.1301 27.7709C20.1298 27.936 20.1548 28.0995 20.2038 28.2521C20.2527 28.4047 20.3247 28.5434 20.4155 28.6601C20.5063 28.7769 20.6142 28.8694 20.7329 28.9323C20.8516 28.9953 20.9788 29.0274 21.1072 29.027C21.3651 29.0251 21.6119 28.8918 21.7935 28.6563C21.9751 28.4209 22.0767 28.1025 22.0759 27.7709C22.0752 27.4403 21.9725 27.1236 21.7904 26.8901C21.6083 26.6567 21.3616 26.5256 21.1044 26.5256C20.9768 26.5251 20.8504 26.557 20.7324 26.6193C20.6144 26.6816 20.5071 26.7732 20.4167 26.8889C20.3262 27.0045 20.2543 27.1419 20.2052 27.2933C20.156 27.4446 20.1305 27.6069 20.1301 27.7709ZM31.199 27.8678C29.4877 27.8678 27.9327 29.088 27.9327 31.4171C27.9327 35.0022 31.6847 34.0512 31.6847 36.5669C31.6847 37.8589 30.8835 38.7597 29.7529 38.7597C28.9266 38.7597 28.0053 38.408 28.1505 37.3529L28.2817 36.4126H27.1651L26.9948 37.6041C26.7268 39.6281 28.4911 40.2741 29.5966 40.2741C31.3916 40.2741 32.9326 38.8494 32.9326 36.47C32.9326 32.7485 29.1806 33.7139 29.1806 31.3166C29.1806 30.1108 30.0097 29.3607 31.0398 29.3607C31.6484 29.3607 32.4719 29.6191 32.3491 30.4373L32.2374 31.2699H33.3569L33.5523 29.9708C33.784 28.4276 32.2067 27.8678 31.199 27.8678ZM12.9389 28.8978C12.85 28.9145 12.7645 28.9535 12.6873 29.0127C12.6102 29.0719 12.5428 29.15 12.4892 29.2427C12.4355 29.3353 12.3966 29.4407 12.3746 29.5527C12.3526 29.6647 12.348 29.7812 12.361 29.8954C12.374 30.0092 12.4043 30.1185 12.4503 30.2171C12.4962 30.3157 12.5568 30.4016 12.6287 30.47C12.7006 30.5384 12.7822 30.5878 12.869 30.6154C12.9558 30.6431 13.0459 30.6484 13.1343 30.6311C13.2227 30.6153 13.3078 30.5772 13.3848 30.5189C13.4617 30.4607 13.5289 30.3836 13.5826 30.2919C13.6363 30.2002 13.6754 30.0958 13.6976 29.9847C13.7199 29.8735 13.7248 29.7578 13.7122 29.6442C13.6853 29.4145 13.589 29.2077 13.4442 29.0687C13.2995 28.9296 13.1179 28.8695 12.9389 28.9014V28.8978ZM22.2239 29.3535C21.9552 29.4041 21.7131 29.5898 21.5508 29.8697C21.3885 30.1497 21.3193 30.501 21.3585 30.8465C21.3972 31.1918 21.5409 31.5034 21.7581 31.7126C21.9753 31.9219 22.2483 32.0118 22.517 31.9626C22.6503 31.9379 22.7785 31.8798 22.8943 31.7914C23.0101 31.703 23.1112 31.5862 23.1919 31.4475C23.2725 31.3088 23.3311 31.1511 23.3642 30.9833C23.3974 30.8155 23.4045 30.641 23.3852 30.4696C23.3458 30.1242 23.2014 29.813 22.9837 29.6044C22.7659 29.3958 22.4926 29.3068 22.2239 29.3571V29.3535ZM38.0357 31.2699C35.8638 31.2699 34.1274 33.7103 34.1274 36.4987C34.1274 38.7417 35.2524 40.2741 37.0502 40.2741C38.6638 40.2741 39.6018 39.0001 39.6018 39.0001L39.264 37.7261C39.264 37.7261 38.3846 38.8458 37.1591 38.8458C36.0145 38.8458 35.325 37.8768 35.325 36.3803C35.325 34.3921 36.5756 32.6911 37.91 32.6911C38.4935 32.6911 39.1718 32.9961 39.0881 33.6959L39.0043 34.2773H40.0484L40.1936 33.2868C40.389 31.758 38.9234 31.2699 38.0357 31.2699ZM59.3218 31.2699C58.1689 31.2699 57.1778 32.5942 56.8847 33.3586H56.8568C56.9406 33.0535 57.0438 32.3824 57.0438 32.1815C57.0438 31.7221 56.8596 31.4709 56.3739 31.4709H54.9864L54.8078 32.7485H55.5699C55.7653 32.7485 55.8127 32.8777 55.7876 33.0966L54.8189 40.0731H55.997L56.5302 36.2332C56.7731 34.5321 57.6608 32.7629 58.8361 32.7629C59.5172 32.7629 59.7154 33.2581 59.7154 33.9543C59.7154 34.2414 59.6624 34.5788 59.6261 34.9233L58.9142 40.0731H60.0867L60.6367 36.1399C60.8544 34.489 61.7282 32.7629 62.87 32.7629C63.5763 32.7629 63.7633 33.2545 63.7633 34.001C63.7633 34.8192 63.2468 37.6902 63.2468 38.4869C63.2468 39.9511 64.048 40.1018 64.5952 40.1018C64.8855 40.1018 65.1172 40.0731 65.1172 40.0731L65.2987 38.7955C65.2987 38.7955 65.1731 38.8314 65.0028 38.8314C64.6985 38.8314 64.4584 38.7238 64.4584 38.0814C64.4584 37.3995 64.9916 34.5608 64.9916 33.538C64.9916 32.0774 64.3523 31.2699 63.3083 31.2699C62.2865 31.2699 61.3653 32.1851 60.8935 33.3586H60.8656C60.8042 31.9949 60.3073 31.2699 59.3218 31.2699ZM45.467 31.3668C44.4955 31.3668 43.6719 32.4363 43.2616 33.66H43.2337C43.3286 33.2509 43.4486 32.4219 43.4486 32.1994C43.4486 31.7078 43.27 31.4709 42.7954 31.4709H41.4107L41.2153 32.7413H41.983C42.1896 32.7413 42.2259 32.9136 42.2008 33.1181L41.2432 40.0731H42.4185L42.8568 36.8791C43.122 34.9053 44.1409 32.9782 45.2715 32.9782C45.4279 32.9782 45.5395 33.0177 45.5982 33.0356L45.8327 31.4027C45.7127 31.3778 45.5913 31.3658 45.4698 31.3668H45.467ZM46.8404 31.4745L46.6562 32.7413H47.6751L47.1084 36.9258C47.0522 37.2838 47.0232 37.648 47.0219 38.0132C47.0219 39.6281 47.8091 40.2741 48.7443 40.2741C50.0313 40.2741 50.8855 39.097 51.2847 38.2142H51.307C51.2233 39.5061 51.709 40.1018 52.5354 40.1018C52.7217 40.1007 52.9079 40.0911 53.0937 40.0731L53.2751 38.7955C53.2751 38.7955 53.1635 38.8314 52.982 38.8314C52.6777 38.8314 52.4349 38.6951 52.4349 38.0814C52.4372 37.9057 52.4503 37.7305 52.474 37.5574L53.3254 31.4709H51.1284L50.9413 32.7413H51.9603L51.6002 35.3755C51.3824 37.0083 50.3858 38.774 49.1575 38.774C48.468 38.774 48.2363 38.3182 48.2363 37.5682C48.2363 37.299 48.2753 36.9437 48.3368 36.5885L49.0402 31.4709L46.8404 31.4745ZM12.5397 31.7795C12.3743 31.8106 12.2252 31.9248 12.1252 32.0971C12.0253 32.2693 11.9826 32.4856 12.0065 32.6983C12.0314 32.9122 12.1211 33.1047 12.256 33.2338C12.391 33.3629 12.5602 33.4181 12.7267 33.3873C12.8088 33.3724 12.8878 33.3367 12.9591 33.2823C13.0304 33.228 13.0926 33.1561 13.1422 33.0707C13.1917 32.9853 13.2276 32.8881 13.2479 32.7848C13.2681 32.6814 13.2722 32.574 13.26 32.4686C13.2351 32.2547 13.1454 32.0621 13.0104 31.933C12.8755 31.8039 12.7062 31.7487 12.5397 31.7795ZM13.1511 34.5716C13.0112 34.5974 12.8849 34.6935 12.8001 34.8388C12.7153 34.9842 12.6789 35.1669 12.6988 35.3468C12.7202 35.5279 12.7965 35.6908 12.9111 35.7998C13.0257 35.9087 13.1692 35.9549 13.3102 35.9281C13.4501 35.9024 13.5763 35.8062 13.6611 35.6609C13.7459 35.5155 13.7824 35.3328 13.7624 35.153C13.7404 34.9722 13.6639 34.8099 13.5495 34.7011C13.4351 34.5923 13.292 34.5458 13.1511 34.5716ZM14.5301 36.8971C14.4088 36.9202 14.2995 37.0041 14.2263 37.1306C14.153 37.2571 14.1217 37.4157 14.1393 37.5718C14.1482 37.6484 14.1687 37.7221 14.1998 37.7885C14.2309 37.8549 14.2718 37.9128 14.3203 37.9588C14.3688 38.0048 14.4239 38.0381 14.4824 38.0566C14.541 38.0752 14.6018 38.0787 14.6613 38.067C14.7821 38.0439 14.8909 37.9605 14.9641 37.8348C15.0373 37.7091 15.069 37.5514 15.0522 37.3959C15.0436 37.319 15.0233 37.2449 14.9924 37.1781C14.9615 37.1113 14.9206 37.053 14.872 37.0066C14.8235 36.9602 14.7683 36.9267 14.7096 36.9079C14.6509 36.8891 14.5899 36.8854 14.5301 36.8971ZM21.4729 37.6866C21.1757 37.6866 20.8906 37.8384 20.6804 38.1086C20.4702 38.3789 20.3521 38.7454 20.3521 39.1275C20.3521 39.5096 20.4702 39.8761 20.6804 40.1464C20.8906 40.4166 21.1757 40.5684 21.4729 40.5684C21.7703 40.5674 22.0553 40.4151 22.2656 40.1448C22.4759 39.8744 22.5944 39.508 22.5952 39.1257C22.5952 38.3326 22.0927 37.6902 21.4729 37.6902V37.6866ZM16.4173 37.9629C16.3074 37.9738 16.2048 38.0374 16.1298 38.1411C16.0547 38.2449 16.0129 38.3812 16.0125 38.5228C16.0121 38.5977 16.0234 38.6719 16.0456 38.7412C16.0678 38.8104 16.1005 38.8733 16.1418 38.9261C16.1832 38.9789 16.2323 39.0206 16.2863 39.0487C16.3403 39.0768 16.3981 39.0908 16.4564 39.0898C16.5139 39.0893 16.5708 39.0743 16.6239 39.0456C16.6769 39.0168 16.725 38.9749 16.7655 38.9223C16.8059 38.8696 16.8379 38.8072 16.8596 38.7387C16.8813 38.6701 16.8922 38.5968 16.8919 38.5228C16.8911 38.3746 16.845 38.2327 16.7635 38.128C16.682 38.0232 16.5716 37.9639 16.4564 37.9629C16.4433 37.9622 16.4303 37.9622 16.4173 37.9629ZM18.2933 38.2931C17.9795 38.3089 17.6827 38.4803 17.4651 38.7714C17.2475 39.0624 17.1261 39.4505 17.1264 39.8542C17.1264 40.163 17.1976 40.4648 17.331 40.7215C17.4644 40.9782 17.6541 41.1783 17.876 41.2965C18.0979 41.4146 18.3421 41.4456 18.5776 41.3853C18.8132 41.3251 19.0296 41.1764 19.1994 40.9581C19.3692 40.7398 19.4849 40.4616 19.5317 40.1588C19.5786 39.8559 19.5545 39.5421 19.4626 39.2568C19.3707 38.9716 19.2151 38.7277 19.0154 38.5562C18.8157 38.3847 18.5809 38.2931 18.3407 38.2931C18.3249 38.2927 18.3091 38.2927 18.2933 38.2931ZM24.4488 38.9211C24.3144 38.9216 24.1814 38.9562 24.0574 39.0228C23.9334 39.0895 23.8208 39.187 23.7261 39.3097C23.6315 39.4323 23.5566 39.5778 23.5058 39.7378C23.4549 39.8977 23.4291 40.069 23.4299 40.2418C23.4299 40.9667 23.8849 41.5589 24.4488 41.5589C24.5833 41.5589 24.7166 41.5248 24.8409 41.4586C24.9652 41.3924 25.0781 41.2954 25.1732 41.1731C25.2684 41.0508 25.3438 40.9056 25.3953 40.7458C25.4468 40.586 25.4733 40.4148 25.4733 40.2418C25.4733 39.8922 25.3655 39.5568 25.1734 39.3092C24.9814 39.0617 24.7208 38.9221 24.4488 38.9211ZM15.8925 40.7514C15.7214 40.7514 15.552 40.7948 15.394 40.879C15.236 40.9633 15.0924 41.0868 14.9716 41.2425C14.8508 41.3982 14.755 41.5829 14.6898 41.7863C14.6246 41.9896 14.5912 42.2074 14.5916 42.4273C14.5916 43.3532 15.1722 44.1033 15.8925 44.1033C16.0638 44.1038 16.2335 44.0607 16.3918 43.9767C16.5501 43.8926 16.694 43.7692 16.8151 43.6135C16.9363 43.4578 17.0323 43.2728 17.0977 43.0693C17.163 42.8657 17.1965 42.6476 17.1961 42.4273C17.1965 42.2071 17.163 41.989 17.0977 41.7854C17.0323 41.5819 16.9363 41.3969 16.8151 41.2412C16.694 41.0855 16.5501 40.9621 16.3918 40.878C16.2335 40.794 16.0638 40.7509 15.8925 40.7514ZM26.6626 41.9106C26.5456 41.911 26.4299 41.9411 26.322 41.9991C26.2141 42.0571 26.1161 42.1418 26.0337 42.2484C25.9512 42.3551 25.886 42.4815 25.8415 42.6206C25.7971 42.7597 25.7745 42.9086 25.7748 43.059C25.7748 43.6942 26.1656 44.2074 26.6626 44.2074C26.8995 44.2074 27.1267 44.0864 27.2942 43.871C27.4618 43.6556 27.5559 43.3635 27.5559 43.059C27.5559 42.7544 27.4618 42.4623 27.2942 42.2469C27.1267 42.0316 26.8995 41.9106 26.6626 41.9106ZM34.5126 43.6403L30.1186 54.604H29.2588L29.1192 55.5909H31.855L32.0002 54.604H31.0287L32.257 51.5248H35.5818L35.9587 54.604H34.9704L34.842 55.5909H37.5332L37.6727 54.604H36.8073L35.4562 43.6403H34.5126ZM39.2137 43.6403L39.0769 44.595H40.174L38.9457 53.4448C38.9113 53.6575 38.8917 53.8736 38.8871 54.0908C38.8871 55.433 39.6018 55.6411 40.0763 55.6411C40.2717 55.6411 40.5007 55.5909 40.5007 55.5909L40.6319 54.604C40.6319 54.604 40.5369 54.6399 40.3304 54.6399C40.04 54.6399 39.7469 54.586 39.7469 53.8719C39.7469 53.7391 39.7748 53.513 39.7972 53.312L41.1316 43.6403H39.2137ZM42.4576 43.6403L42.3208 44.595H43.4095L42.1896 53.4448C42.1534 53.6573 42.1319 53.8734 42.1254 54.0908C42.1254 55.433 42.8456 55.6411 43.3202 55.6411C43.5156 55.6411 43.7445 55.5909 43.7445 55.5909L43.8757 54.604C43.8757 54.604 43.7808 54.6399 43.5742 54.6399C43.2839 54.6399 42.9908 54.586 42.9908 53.8719C42.9908 53.7391 43.0187 53.513 43.041 53.312L44.3726 43.6403H42.4576ZM47.0331 43.6403L46.8265 45.083H47.7645L47.9711 43.6403H47.0331ZM14.6725 44.7134C14.3085 44.7143 13.9595 44.9007 13.7021 45.2316C13.4447 45.5625 13.2998 46.0111 13.299 46.479C13.299 47.4552 13.9132 48.2375 14.6725 48.2375C14.8526 48.2385 15.0311 48.1937 15.1977 48.1057C15.3643 48.0178 15.5158 47.8884 15.6434 47.725C15.771 47.5616 15.8722 47.3675 15.9413 47.1537C16.0104 46.9398 16.046 46.7106 16.046 46.479C16.046 46.0108 15.9013 45.5617 15.6437 45.2305C15.3861 44.8994 15.0368 44.7134 14.6725 44.7134ZM77.6963 44.8533C76.9817 44.8533 76.4038 45.6788 76.4038 46.7123C76.4038 47.7423 76.9817 48.5677 77.6963 48.5677C78.4221 48.5677 79 47.7423 79 46.7123C79 45.6752 78.4193 44.8533 77.6963 44.8533ZM34.8309 44.8677H34.8532C34.8532 44.8677 34.8532 45.2409 34.9007 45.6321L35.4869 50.5236H32.6311L34.5936 45.6321C34.7387 45.2373 34.8281 44.8677 34.8281 44.8677H34.8309ZM77.6963 45.1979C78.2826 45.1979 78.732 45.8582 78.732 46.7087C78.732 47.5593 78.2826 48.2232 77.6991 48.2232C77.1184 48.2232 76.6718 47.5593 76.6718 46.7087C76.6718 45.8582 77.1184 45.1943 77.6963 45.1943V45.1979ZM27.6005 45.546C27.4916 45.5455 27.3836 45.5727 27.2828 45.6261C27.1821 45.6795 27.0905 45.758 27.0134 45.8571C26.9364 45.9562 26.8753 46.0739 26.8338 46.2034C26.7923 46.3329 26.7711 46.4717 26.7714 46.6118C26.7714 46.8955 26.8591 47.1675 27.0151 47.368C27.1711 47.5686 27.3827 47.6813 27.6033 47.6813C27.824 47.6813 28.0356 47.5686 28.1916 47.368C28.3476 47.1675 28.4352 46.8955 28.4352 46.6118C28.4349 46.4711 28.4129 46.3318 28.3706 46.202C28.3283 46.0722 28.2664 45.9544 28.1886 45.8554C28.1108 45.7564 28.0186 45.6781 27.9172 45.625C27.8158 45.5719 27.7072 45.545 27.5978 45.546H27.6005ZM77.2552 45.7434V47.6633H77.5121V46.9205H77.7354L77.9922 47.6633H78.2742L78.0118 46.9563C77.9811 46.8702 77.9643 46.8487 77.9643 46.8487V46.8379C78.076 46.7949 78.2156 46.6262 78.2156 46.3319C78.2156 45.973 78.0425 45.7434 77.7829 45.7434H77.2552ZM77.5121 46.0161H77.7298C77.8638 46.0161 77.9531 46.1345 77.9531 46.3319C77.9531 46.5365 77.8638 46.6549 77.7298 46.6549H77.5121V46.0161ZM51.9408 46.8379C50.665 46.8379 49.7214 47.7208 49.7214 47.7208L49.9727 48.6574C49.9727 48.6574 50.8018 47.8607 51.8095 47.8607C52.7447 47.8607 53.0574 48.4852 53.0574 49.3895C53.0574 49.6946 52.9597 50.3585 52.9597 50.3585H52.5605C50.8855 50.3585 48.4177 50.9147 48.4177 53.6494C48.4177 55.0274 49.2217 55.7954 50.2044 55.7954C51.6504 55.7954 52.4656 53.958 52.4516 53.958H52.474C52.4125 55.0956 52.8648 55.6268 53.5822 55.6268C53.8 55.6268 54.0401 55.5909 54.0401 55.5909L54.1768 54.6399C54.1768 54.6399 54.0652 54.6757 53.8586 54.6757C53.5794 54.6757 53.2863 54.586 53.2863 53.8755C53.2863 53.1577 53.8977 50.2221 53.8977 49.2208C53.8977 47.57 53.1049 46.8379 51.9408 46.8379ZM60.0923 46.8379C58.5848 46.8379 57.6133 48.3703 57.3705 49.0988H57.3426C57.4531 48.6576 57.5224 48.201 57.5491 47.7387C57.5491 47.2973 57.3956 47.0389 56.935 47.0389H55.7681L55.6285 47.9935H56.4604C56.6558 47.9935 56.7033 48.1622 56.6781 48.3631L55.6704 55.5909H56.4939L57.0438 51.6648C57.3091 49.6623 58.5234 47.9217 59.8355 47.9217C60.5138 47.9217 60.8935 48.3847 60.8935 49.3536C60.8935 50.3046 60.3212 53.3981 60.3212 54.1626C60.3212 55.4545 61.047 55.6268 61.4881 55.6268C61.6919 55.6268 61.9348 55.5909 61.9348 55.5909L62.0716 54.6399C62.0716 54.6399 61.9599 54.6757 61.7645 54.6757C61.4742 54.6757 61.181 54.604 61.181 53.8755C61.181 53.1936 61.7533 50.0821 61.7533 49.0306C61.7533 47.6203 61.1587 46.8379 60.0923 46.8379ZM67.1551 46.8379C65.1284 46.8379 63.3083 49.167 63.3083 52.0739C63.3083 54.3671 64.4472 55.7954 66.1111 55.7954C67.666 55.7954 68.59 54.5178 68.59 54.5178L68.3248 53.5668C68.3248 53.5668 67.451 54.7583 66.1753 54.7583C64.986 54.7583 64.1597 53.7175 64.1597 52.0021C64.1597 49.673 65.6393 47.8751 67.0602 47.8751C67.6548 47.8751 68.4839 48.1981 68.3834 48.9948L68.2969 49.6264H69.0646L69.1846 48.722C69.3689 47.3296 67.9842 46.8379 67.1579 46.8379H67.1551ZM73.6066 46.8379C71.5408 46.8379 70.0361 49.4039 70.0361 52.1923C70.0361 54.3492 71.1304 55.7954 72.8054 55.7954C74.0923 55.7954 75.1001 54.6722 75.1001 54.6722L74.8461 53.7211C74.8461 53.7211 73.9444 54.7583 72.8389 54.7583C71.5519 54.7583 70.8847 53.5848 70.8847 52.1062C70.8847 51.6827 70.9462 51.3239 70.9462 51.3239H75.6361C75.6361 51.3239 75.8036 50.5917 75.8036 49.9278C75.8036 48.1442 75.1141 46.8379 73.6066 46.8379ZM45.5284 47.0389L45.3972 47.9935H46.4859L45.7126 53.5022C45.6875 53.7391 45.6484 53.9544 45.6484 54.1267C45.6484 55.4689 46.3798 55.6268 46.8404 55.6268C47.0107 55.6268 47.2676 55.5909 47.2676 55.5909L47.3988 54.6363C47.3988 54.6363 47.2983 54.6722 47.0917 54.6722C46.8014 54.6722 46.5138 54.586 46.5138 53.8755C46.5145 53.7107 46.5257 53.5462 46.5473 53.3838L47.4462 47.0389H45.5284ZM73.5703 47.8033C74.3715 47.8033 74.9661 48.4708 74.9661 49.8309C74.9661 50.1683 74.9159 50.4769 74.9159 50.4769H71.0941C71.5324 48.74 72.5625 47.8033 73.5703 47.8033ZM27.2153 49.3285C27.0295 49.3285 26.8512 49.4234 26.7198 49.5923C26.5884 49.7613 26.5146 49.9904 26.5146 50.2293C26.5146 50.4682 26.5884 50.6973 26.7198 50.8662C26.8512 51.0352 27.0295 51.1301 27.2153 51.1301C27.4011 51.1301 27.5794 51.0352 27.7108 50.8662C27.8422 50.6973 27.916 50.4682 27.916 50.2293C27.916 49.9904 27.8422 49.7613 27.7108 49.5923C27.5794 49.4234 27.4011 49.3285 27.2153 49.3285ZM52.4823 51.2305H52.8369L52.7754 51.6002C52.5102 53.0788 51.5499 54.8444 50.4109 54.8444C49.5958 54.8444 49.2552 54.2164 49.2552 53.4843C49.2552 51.3777 51.4606 51.227 52.4823 51.227V51.2305ZM25.772 52.6804C25.6921 52.6795 25.6128 52.6988 25.5387 52.7372C25.4646 52.7756 25.3971 52.8325 25.3401 52.9045C25.283 52.9764 25.2376 53.0622 25.2063 53.1567C25.1751 53.2513 25.1586 53.3528 25.1579 53.4556C25.1579 53.5592 25.1738 53.6619 25.2046 53.7577C25.2355 53.8535 25.2807 53.9405 25.3378 54.0138C25.3948 54.0872 25.4625 54.1453 25.537 54.185C25.6115 54.2247 25.6914 54.2451 25.772 54.2451C26.107 54.2451 26.375 53.8862 26.375 53.4556C26.375 53.25 26.3115 53.0528 26.1984 52.9074C26.0853 52.7621 25.932 52.6804 25.772 52.6804ZM23.5136 54.5214C23.3606 54.5224 23.214 54.6009 23.1058 54.7401C22.9976 54.8792 22.9365 55.0676 22.9357 55.2643C22.9357 55.6734 23.1954 56 23.5136 56C23.5889 56.0005 23.6634 55.9818 23.733 55.945C23.8026 55.9082 23.8659 55.854 23.9191 55.7856C23.9723 55.7172 24.0144 55.6359 24.0431 55.5464C24.0717 55.4569 24.0863 55.361 24.0859 55.2643C24.0863 55.1672 24.0717 55.071 24.0432 54.9811C24.0146 54.8912 23.9726 54.8095 23.9194 54.7405C23.8663 54.6715 23.8031 54.6167 23.7335 54.5791C23.6638 54.5415 23.5891 54.5219 23.5136 54.5214Z" fill="black"/>
<defs>
<filter id="filter0_d_31_135" x="0" y="0" width="91" height="92" filterUnits="userSpaceOnUse" color-interpolation-filters="sRGB">
<feFlood flood-opacity="0" result="BackgroundImageFix"/>
<feColorMatrix in="SourceAlpha" type="matrix" values="0 0 0 0 0 0 0 0 0 0 0 0 0 0 0 0 0 0 127 0" result="hardAlpha"/>
<feOffset dy="4"/>
<feGaussianBlur stdDeviation="2"/>
<feComposite in2="hardAlpha" operator="out"/>
<feColorMatrix type="matrix" values="0 0 0 0 0 0 0 0 0 0 0 0 0 0 0 0 0 0 0.25 0"/>
<feBlend mode="normal" in2="BackgroundImageFix" result="effect1_dropShadow_31_135"/>
<feBlend mode="normal" in="SourceGraphic" in2="effect1_dropShadow_31_135" result="shape"/>
</filter>
</defs>
</svg>
